<svg width="35" height="34" viewBox="0 0 35 34" fill="none" xmlns="http://www.w3.org/2000/svg">
    <path fill-rule="evenodd" clip-rule="evenodd"
        d="M23.0714 24.2857H11.9286C10.9818 24.2857 10.2143 23.5182 10.2143 22.5714V11.4286C10.2143 10.4818 10.9818 9.71428 11.9286 9.71428H23.0714C24.0182 9.71428 24.7857 10.4818 24.7857 11.4286V22.5714C24.7857 23.5182 24.0182 24.2857 23.0714 24.2857ZM11.9286 26C10.035 26 8.5 24.465 8.5 22.5714V11.4286C8.5 9.53502 10.035 8 11.9286 8H23.0714C24.965 8 26.5 9.53502 26.5 11.4286V22.5714C26.5 24.465 24.965 26 23.0714 26H11.9286Z"
        fill="#0d99ff" />
    <path
        d="M18.0446 15.4744C18.0446 15.5849 18.1342 15.6744 18.2446 15.6744H19.9189C20.0747 15.6744 20.1707 15.8447 20.09 15.978L17.6144 20.0685C17.5337 20.2018 17.6297 20.3721 17.7855 20.3721H22.9452C23.0556 20.3721 23.1452 20.2826 23.1452 20.1721V18.8512C23.1452 18.7407 23.0556 18.6512 22.9452 18.6512H21.0164C20.8605 18.6512 20.7646 18.4806 20.8455 18.3474L23.3857 14.1643C23.4666 14.031 23.3707 13.8605 23.2148 13.8605H18.2446C18.1342 13.8605 18.0446 13.95 18.0446 14.0605V15.4744Z"
        fill="#0d99ff" />
    <path
        d="M11.5693 15.4744C11.5693 15.5849 11.6589 15.6744 11.7693 15.6744H13.2598C13.3703 15.6744 13.4598 15.764 13.4598 15.8744V20.1721C13.4598 20.2826 13.5494 20.3721 13.6598 20.3721H15.3393C15.4498 20.3721 15.5393 20.2826 15.5393 20.1721V15.8744C15.5393 15.764 15.6289 15.6744 15.7393 15.6744H17.2298C17.3403 15.6744 17.4298 15.5849 17.4298 15.4744V14.0605C17.4298 13.95 17.3403 13.8605 17.2298 13.8605H11.7693C11.6589 13.8605 11.5693 13.95 11.5693 14.0605V15.4744Z"
        fill="#0d99ff" />
</svg>
    